<?xml version="1.0" encoding="UTF-8"?>
<!DOCTYPE svg PUBLIC "-//W3C//DTD SVG 1.1//EN" "http://www.w3.org/Graphics/SVG/1.1/DTD/svg11.dtd">
<svg xmlns="http://www.w3.org/2000/svg" version="1.1" width="512px" height="512px" style="shape-rendering:geometricPrecision; text-rendering:geometricPrecision; image-rendering:optimizeQuality; fill-rule:evenodd; clip-rule:evenodd" xmlns:xlink="http://www.w3.org/1999/xlink">
<g><path style="opacity:1" fill="#37cba0" d="M 204.5,31.5 C 241.835,31.3333 279.168,31.5 316.5,32C 319.738,32.232 322.238,33.732 324,36.5C 324.5,84.8322 324.667,133.166 324.5,181.5C 339.17,181.333 353.837,181.5 368.5,182C 380.757,186.345 385.257,194.845 382,207.5C 345.925,257.142 308.759,305.975 270.5,354C 259.299,359.045 250.132,356.545 243,346.5C 208.09,300.345 173.423,254.012 139,207.5C 135.411,194.546 139.911,186.046 152.5,182C 166.829,181.5 181.163,181.333 195.5,181.5C 195.333,134.499 195.5,87.4988 196,40.5C 197.015,35.6543 199.849,32.6543 204.5,31.5 Z"/></g>
<g><path style="opacity:1" fill="#fec74c" d="M 511.5,333.5 C 511.5,374.5 511.5,415.5 511.5,456.5C 507.121,470.036 497.787,477.536 483.5,479C 331.5,479.667 179.5,479.667 27.5,479C 13.2128,477.536 3.87948,470.036 -0.5,456.5C -0.5,415.5 -0.5,374.5 -0.5,333.5C 3.61382,320.895 12.2805,313.395 25.5,311C 61.5,310.333 97.5,310.333 133.5,311C 141.457,312.394 147.957,316.228 153,322.5C 157.886,332.94 162.22,343.606 166,354.5C 170.679,362.419 177.512,367.253 186.5,369C 232.5,369.667 278.5,369.667 324.5,369C 333.488,367.253 340.321,362.419 345,354.5C 348.78,343.606 353.114,332.94 358,322.5C 363.043,316.228 369.543,312.394 377.5,311C 413.5,310.333 449.5,310.333 485.5,311C 498.72,313.395 507.386,320.895 511.5,333.5 Z M 376.5,440.5 C 295.833,440.5 215.167,440.5 134.5,440.5C 133.069,440.119 132.236,439.119 132,437.5C 130.007,426.229 129.007,414.896 129,403.5C 129.903,402.299 131.069,401.465 132.5,401C 214.5,400.333 296.5,400.333 378.5,401C 381.967,402.692 383.3,405.525 382.5,409.5C 381.661,418.873 380.494,428.207 379,437.5C 378.764,439.119 377.931,440.119 376.5,440.5 Z"/></g>
<g><path style="opacity:1" fill="#ffbe6e" d="M 134.5,440.5 C 215.167,440.5 295.833,440.5 376.5,440.5C 376.5,440.833 376.5,441.167 376.5,441.5C 353.212,442.48 329.878,442.813 306.5,442.5C 249.832,442.667 193.166,442.5 136.5,442C 135.584,441.722 134.918,441.222 134.5,440.5 Z"/></g>
<g><path style="opacity:1" fill="#ffc453" d="M 376.5,441.5 C 376.389,442.117 376.056,442.617 375.5,443C 352.33,443.83 329.33,443.663 306.5,442.5C 329.878,442.813 353.212,442.48 376.5,441.5 Z"/></g>
</svg>
